/vscmnt/brussel_pixiu_data/_data_brussel/112/vsc11236/PredSimResults/SUBJ07mtu3D/weighted-LRposFixed/trackIG/worker_02.mot
version=1
nRows=8
nColumns=50
inDegrees=yes
endheader
                time	         pelvis_tilt	         pelvis_list	     pelvis_rotation	           pelvis_tx	           pelvis_ty	           pelvis_tz	       hip_flexion_r	     hip_adduction_r	      hip_rotation_r	        knee_angle_r	       ankle_angle_r	         mtp_angle_r	       hip_flexion_l	     hip_adduction_l	      hip_rotation_l	        knee_angle_l	       ankle_angle_l	         mtp_angle_l	    lumbar_extension	      lumbar_bending	     lumbar_rotation	 ercspn_r/activation	 intobl_r/activation	 extobl_r/activation	    abd_r/activation	    add_r/activation	hamstrings_r/activation	bifemsh_r/activation	glut_max_r/activation	iliopsoas_r/activation	rect_fem_r/activation	  vasti_r/activation	gastroc_r/activation	 soleus_r/activation	tib_ant_r/activation	 ercspn_l/activation	 intobl_l/activation	 extobl_l/activation	    abd_l/activation	    add_l/activation	hamstrings_l/activation	bifemsh_l/activation	glut_max_l/activation	iliopsoas_l/activation	rect_fem_l/activation	  vasti_l/activation	gastroc_l/activation	 soleus_l/activation	tib_ant_l/activation	
          0.00000000	         -6.49186800	         -3.82472929	          8.98653145	          0.00000000	          0.84383697	         -0.01185647	         31.59637144	         -0.22964883	         -6.81569200	         -3.90312770	          7.66089625	          0.25218304	        -13.30910946	         -4.55609295	          5.06893706	         -7.46169797	          7.96482255	         28.66802166	         -6.87965781	          2.24074378	         -3.89991300	          0.10303613	          0.18315484	          0.02710654	          0.01604137	          0.13379370	          0.08144099	          0.21457258	          0.01000000	          0.08682503	          0.01000000	          0.01000000	          0.01718673	          0.00999999	          0.27379994	          0.03706629	          0.00999999	          0.00999999	          0.03476527	          0.05219502	          0.03040044	          0.14647076	          0.02725530	          0.40625453	          0.01000001	          0.01066622	          0.26754876	          0.26392480	          0.02105063	
          0.01090281	         -6.55368806	         -3.69599311	          8.88869226	          0.01648261	          0.84197225	         -0.01162159	         31.69625346	         -0.04328891	         -5.96468484	         -5.77363267	          7.32282921	          0.24742074	        -13.32079560	         -4.41949220	          4.55927260	         -9.45141879	          7.21090140	         30.43257701	         -6.69193357	          2.68799810	         -3.97276377	          0.08719214	          0.15532647	          0.02293834	          0.01357467	          0.19620618	          0.07059973	          0.18157749	          0.08800464	          0.07347384	          0.01000001	          0.00999999	          0.02304418	          0.01868091	          0.28031402	          0.09931736	          0.00999999	          0.01000001	          0.02941937	          0.10232367	          0.02572574	          0.12394777	          0.02306422	          0.41834169	          0.01000001	          0.01000002	          0.22640745	          0.24462889	          0.01781365	
          0.02180563	         -6.59880108	         -3.56847480	          8.73335998	          0.03322709	          0.84026395	         -0.01135703	         31.59836749	          0.12372476	         -5.12033345	         -7.51127261	          6.94536923	          0.23756458	        -13.13818589	         -4.26499698	          3.99092362	        -11.86000618	          6.35240634	         32.09313828	         -6.49071009	          3.15627743	         -4.01644107	          0.07892986	          0.13144172	          0.01941108	          0.08435209	          0.19578661	          0.06968439	          0.15365610	          0.10835649	          0.06217568	          0.00999999	          0.00999999	          0.01950065	          0.01580832	          0.33160938	          0.13073093	          0.00999999	          0.01000000	          0.02489552	          0.09182193	          0.02176986	          0.10488817	          0.01951761	          0.39984853	          0.01000000	          0.00999999	          0.19159249	          0.21082194	          0.01507442	
          0.03270844	         -6.62959492	         -3.43827700	          8.52177271	          0.05001319	          0.83889299	         -0.01099822	         31.33989089	          0.30954473	         -4.36538325	         -8.96055482	          6.46169537	          0.22102734	        -12.68981801	         -4.09741353	          3.37836681	        -14.76599249	          5.35107623	         33.50954377	         -6.29888765	          3.62626540	         -4.03251097	          0.09054422	          0.11122977	          0.01642621	          0.13172879	          0.20568217	          0.06001847	          0.13002821	          0.15196279	          0.05261484	          0.01000000	          0.00999999	          0.01650201	          0.01337746	          0.35523795	          0.16284778	          0.00999999	          0.01000000	          0.02106730	          0.10078513	          0.01842229	          0.08875939	          0.01651636	          0.37495057	          0.01000000	          0.00999999	          0.16213108	          0.17840359	          0.01275641	
          0.04361126	         -6.64652574	         -3.31229195	          8.25891882	          0.06663472	          0.83801037	         -0.01055215	         31.01634837	          0.51693492	         -3.70780497	        -10.31459490	          6.07831330	          0.20593301	        -11.93198028	         -3.93161178	          2.72177875	        -18.19972953	          4.20995639	         34.42294877	         -6.13424089	          4.10374517	         -4.01980126	          0.08654880	          0.09412583	          0.01390033	          0.15769026	          0.20008085	          0.05078937	          0.11003361	          0.16802352	          0.04452419	          0.01000000	          0.03436716	          0.01396448	          0.01132039	          0.37524644	          0.19243833	          0.00999999	          0.01000000	          0.01782776	          0.10358534	          0.01558948	          0.07511075	          0.01397662	          0.32295608	          0.00999999	          0.00999999	          0.13719998	          0.15097025	          0.01079484	
          0.05451407	         -6.65050488	         -3.19070438	          7.94649411	          0.08297143	          0.83773091	         -0.01003484	         30.65955459	          0.73554118	         -3.14829668	        -11.61458969	          5.82344528	          0.18991321	        -10.85892294	         -3.77976760	          2.01832017	        -22.12559481	          2.89412674	         34.60648474	         -6.00517081	          4.58613811	         -3.97726024	          0.07324009	          0.07965198	          0.01176286	          0.16996448	          0.17872481	          0.05072606	          0.09311361	          0.16047203	          0.03767765	          0.01000000	          0.11849758	          0.01181714	          0.01000000	          0.38471418	          0.21719795	          0.00999999	          0.00999999	          0.01508636	          0.11924098	          0.01319227	          0.06356089	          0.01182742	          0.27329472	          0.00999999	          0.00999999	          0.11610256	          0.12775536	          0.00999999	
          0.06541689	         -6.64473922	         -3.06354753	          7.58283881	          0.09896562	          0.83816778	         -0.00947253	         30.21760021	          0.95228538	         -2.67255547	        -12.75644720	          5.72678035	          0.17410777	         -9.49627208	         -3.64105489	          1.27965743	        -26.41154916	          1.20763070	         34.08168454	         -5.91427713	          5.05993403	         -3.90393698	          0.06197787	          0.06740380	          0.00999999	          0.17522226	          0.15124208	          0.05075569	          0.07879542	          0.13961123	          0.03188391	          0.01000000	          0.18377243	          0.01000001	          0.01000000	          0.37999703	          0.21863081	          0.00999999	          0.01000000	          0.01276651	          0.13330486	          0.01116368	          0.05522154	          0.01000870	          0.23126985	          0.00999999	          0.00999999	          0.09824933	          0.10811026	          0.00999999	
          0.07631970	         -6.63220699	         -2.91844357	          7.16842709	          0.11458991	          0.83934037	         -0.00889563	         29.64354100	          1.15586308	         -2.23185327	        -13.65192958	          5.79310227	          0.16239840	         -7.88985980	         -3.51023788	          0.52459405	        -30.90255113	         -0.88035751	         32.71027505	         -5.86328626	          5.51110533	         -3.79906456	          0.05244746	          0.05703903	          0.01000000	          0.18461015	          0.12798540	          0.04985395	          0.06667895	          0.11814304	          0.02698108	          0.00999999	          0.19718390	          0.01181713	          0.01181714	          0.36285038	          0.22346447	          0.02330845	          0.01000000	          0.01080339	          0.11561218	          0.01181714	          0.04673006	          0.00999999	          0.19570719	          0.00999999	          0.00999999	          0.08314141	          0.09148601	          0.04306890	
